Coordinates
version=1
nRows=22
nColumns=24
inDegrees=yes

Units are S.I. units (second, meters, Newtons, ...)
Angles are in degrees.

endheader
time	pelvis_tilt	pelvis_list	pelvis_rotation	pelvis_tx	pelvis_ty	pelvis_tz	hip_flexion_r	hip_adduction_r	hip_rotation_r	knee_angle_r	ankle_angle_r	subtalar_angle_r	mtp_angle_r	hip_flexion_l	hip_adduction_l	hip_rotation_l	knee_angle_l	ankle_angle_l	subtalar_angle_l	mtp_angle_l	lumbar_extension	lumbar_bending	lumbar_rotation
      4.11500000	     -9.31156512	     -8.30473707	      2.55174097	     -0.94646754	     -0.01774557	      0.64990141	     15.38930289	     12.34513967	     -4.07100109	    -12.75097668	      0.42777801	     -4.15900167	      5.49282841	     27.91679808	    -14.62233759	     -4.13928361	    -68.05543475	     -8.74184606	     16.59559134	     31.95359749	      6.05668984	      8.69721453	     -2.59612518
      4.12000000	     -9.30856091	     -7.97510285	      2.07820414	     -0.93963422	     -0.01673204	      0.65043752	     14.48608108	     12.18925388	     -3.42466688	    -12.10916283	      0.54432736	     -4.03857865	      5.44542037	     28.61429176	    -14.39552748	     -4.55893304	    -67.64700199	     -8.55499443	     17.09967827	     32.14004643	      5.98751984	      8.43585056	     -1.97308457
      4.12500000	     -9.27011459	     -7.66351500	      1.57783892	     -0.93283577	     -0.01580461	      0.65099273	     13.55310859	     12.04781492	     -2.67700410	    -11.47819537	      0.65962978	     -3.98914353	      5.33602979	     29.25746896	    -14.21122641	     -5.02168693	    -67.18555641	     -8.39520077	     17.45204514	     32.28187366	      5.87091557	      8.20147559	     -1.30908346
      4.13000000	     -9.28372021	     -7.33950735	      1.11780033	     -0.92601149	     -0.01500712	      0.65150928	     12.71130896	     11.85620496	     -2.10767111	    -10.89362417	      0.78550070	     -3.84858801	      5.26515679	     29.94234500	    -13.98193790	     -5.41646833	    -66.64260281	     -8.20586087	     17.88978064	     32.37166522	      5.82995315	      7.93950225	     -0.73126059
      4.13500000	     -9.26471787	     -7.02819473	      0.61847573	     -0.91923000	     -0.01429601	      0.65204778	     11.84711347	     11.67204512	     -1.45125752	    -10.32875395	      0.92964901	     -3.72152218	      5.16696340	     30.56956469	    -13.79622115	     -5.86833979	    -66.05063976	     -8.03428884	     18.16237810	     32.37820457	      5.74308054	      7.70316116	     -0.09653406
      4.14000000	     -9.24754369	     -6.73135411	      0.13231542	     -0.91245749	     -0.01369533	      0.65256398	     11.00360981	     11.48286319	     -0.81857820	     -9.78523274	      1.07880098	     -3.60090309	      5.05680238	     31.18878876	    -13.62023997	     -6.30019615	    -65.40245818	     -7.86322138	     18.36334575	     32.31731893	      5.66102593	      7.47985302	      0.50695892
      4.14500000	     -9.22446683	     -6.44893424	     -0.35642222	     -0.90570907	     -0.01319857	      0.65308272	     10.17189480	     11.29373947	     -0.18898616	     -9.26366449	      1.23457612	     -3.48189495	      4.93793664	     31.78704393	    -13.46590296	     -6.73354940	    -64.70159556	     -7.69143923	     18.47437712	     32.17796380	      5.57173392	      7.27180882	      1.10691713
      4.15000000	     -9.20104213	     -6.18108936	     -0.83912066	     -0.89897742	     -0.01281048	      0.65359405	      9.35771330	     11.10241133	      0.42061733	     -8.76276204	      1.39974409	     -3.35721635	      4.82443610	     32.37108275	    -13.32772954	     -7.15597669	    -63.94721736	     -7.51701639	     18.51029995	     31.96358226	      5.48224474	      7.07513654	      1.68911147
      4.15500000	     -9.17741224	     -5.92919614	     -1.31460171	     -0.89226517	     -0.01252615	      0.65408936	      8.56169628	     10.91104643	      1.00139278	     -8.28249546	      1.57158619	     -3.22326806	      4.72685334	     32.94020529	    -13.20551944	     -7.56679937	    -63.13846888	     -7.34115497	     18.47366365	     31.67751659	      5.39364772	      6.89661354	      2.25455422
      4.16000000	     -9.10965714	     -5.72514760	     -1.78246678	     -0.88559671	     -0.01233533	      0.65456686	      7.72898175	     10.75626342	      1.60791160	     -7.81368969	      1.74050041	     -3.14162901	      4.58736239	     33.45518521	    -13.13236623	     -7.94932263	    -62.29951537	     -7.11963234	     18.40202449	     31.22311028	      5.24683879	      6.76864165	      2.83165897
      4.16500000	     -9.12694261	     -5.47950566	     -2.22691998	     -0.87887683	     -0.01227991	      0.65503057	      7.01508540	     10.53784354	      2.09713413	     -7.37937515	      1.94273976	     -2.96518245	      4.56495185	     34.02988282	    -13.00641114	     -8.33114390	    -61.36426008	     -6.96657329	     18.24311590	     30.85426389	      5.21369870	      6.58745868	      3.31422135
      4.17000000	     -9.09266187	     -5.27280281	     -2.68181790	     -0.87221226	     -0.01229436	      0.65548505	      6.26167702	     10.34796488	      2.59868956	     -6.96540895	      2.15152733	     -2.79107345	      4.56367730	     34.52939745	    -12.93225813	     -8.71614013	    -60.38633830	     -6.78184160	     18.03855246	     30.39054854	      5.11099828	      6.45106184	      3.83745422
      4.17500000	     -9.00466576	     -5.10979796	     -3.11107008	     -0.86556930	     -0.01238610	      0.65590464	      5.45627177	     10.18856415	      3.11011604	     -6.55520748	      2.35561549	     -2.68153654	      4.56854226	     34.95892912	    -12.89136642	     -9.05733587	    -59.37706328	     -6.52154557	     17.92160030	     29.69139032	      4.94188133	      6.35682610	      4.34149953
      4.18000000	     -9.02594460	     -4.91378651	     -3.50050490	     -0.85890123	     -0.01263975	      0.65626404	      4.80056443	      9.98098064	      3.51582717	     -6.18692524	      2.58920399	     -2.51445736	      4.62289143	     35.48480003	    -12.79122537	     -9.38480163	    -58.26755782	     -6.38356275	     17.60843887	     29.21706186	      4.91187389	      6.22480786	      4.75520803
      4.18500000	     -8.98206178	     -4.74539955	     -3.90086135	     -0.85225450	     -0.01292923	      0.65663849	      4.08791936	      9.79208482	      3.93773122	     -5.84178138	      2.83337930	     -2.34764359	      4.70331988	     35.90311473	    -12.73087968	     -9.71763097	    -57.09932228	     -6.19531034	     17.36626518	     28.65799357	      4.79900823	      6.11607675	      5.20141218
      4.19000000	     -8.88217571	     -4.62196975	     -4.26841665	     -0.84563984	     -0.01329569	      0.65696782	      3.32493151	      9.63563933	      4.36399929	     -5.50987616	      3.09384046	     -2.22908516	      4.82040501	     36.24934936	    -12.69715468	    -10.00411275	    -55.89960790	     -5.93732922	     17.23584148	     27.89647410	      4.61622547	      6.04810587	      5.61955981
      4.19500000	     -8.89341471	     -4.46905019	     -4.58998719	     -0.83899041	     -0.01380867	      0.65721261	      2.70980414	      9.44236654	      4.70526659	     -5.21671590	      3.35119149	     -2.10279239	      4.90586166	     36.68624778	    -12.60021983	    -10.26687786	    -54.58828885	     -5.79027679	     16.97544817	     27.38404576	      4.57296550	      5.95166204	      5.95103430
      4.20000000	     -8.83346233	     -4.34118894	     -4.91061793	     -0.83236001	     -0.01435097	      0.65744641	      2.03271622	      9.26361138	      5.06480100	     -4.95329645	      3.63990488	     -1.98219976	      5.00812776	     37.01072589	    -12.52874289	    -10.52818247	    -53.21927500	     -5.59897348	     16.82928942	     26.81090393	      4.43997676	      5.87658507	      6.30399280
      4.20500000	     -8.75356442	     -4.23811515	     -5.18814615	     -0.82573650	     -0.01499157	      0.65761404	      1.34252836	      9.09902749	      5.41914312	     -4.70216481	      3.96049661	     -1.89513001	      5.12009576	     37.30036153	    -12.45488965	    -10.75177282	    -51.80733053	     -5.39057234	     16.76938531	     26.16233172	      4.28386978	      5.82203154	      6.61746376
      4.21000000	     -8.78043810	     -4.11893964	     -5.41755989	     -0.81910963	     -0.01578253	      0.65773586	      0.80879898	      8.92460708	      5.70628111	     -4.52093848	      4.29241376	     -1.82261655	      5.19045054	     37.67349758	    -12.32003940	    -10.88520821	    -50.27677373	     -5.25789053	     16.74101615	     25.78792951	      4.25358664	      5.74242479	      6.83081357
      4.21500000	     -8.73043250	     -4.00262635	     -5.65869973	     -0.81247234	     -0.01656109	      0.65782804	      0.20058664	      8.73798530	      6.01629049	     -4.35709209	      4.64160505	     -1.74191033	      5.26865410	     37.91524702	    -12.19704778	    -11.07376281	    -48.68441627	     -5.10935021	     16.78663170	     25.35085180	      4.13123264	      5.67036126	      7.10204527
      4.22000000	     -8.61501122	     -3.90671587	     -5.88011356	     -0.80577933	     -0.01735094	      0.65788423	     -0.48846929	      8.55928433	      6.30398623	     -4.17600373	      4.96641771	     -1.67773103	      5.34785337	     38.05200880	    -12.07934411	    -11.27236253	    -47.05040917	     -4.91833582	     16.90632492	     24.77606834	      3.94062844	      5.61088425	      7.39967226
